<?xml version="1.0" encoding="utf-8"?>
<!-- Generator: Adobe Illustrator 23.0.1, SVG Export Plug-In . SVG Version: 6.00 Build 0)  -->
<svg version="1.1" id="Layer_1" xmlns="http://www.w3.org/2000/svg" xmlns:xlink="http://www.w3.org/1999/xlink" x="0px" y="0px"
	 viewBox="0 0 1030.9 154.3" style="enable-background:new 0 0 1030.9 154.3;" xml:space="preserve">
<style type="text/css">
	.st0{fill:#27323F;}
	.st1{fill:#FF7443;}
</style>
<g>
	<g>
		<g>
			<path class="st0" d="M478.7,33.6h24.2v25.2c-5,5-14.1,8-21.2,8c-19.4,0-30.3-11.6-30.3-29.2c0-16.2,10.9-29.2,28.7-29.2
				c8.4,0,13.9,2.3,18.5,5.9l-5.4,10.4c-2.3-2.4-7.2-4.2-11.6-4.2c-9.3,0-16.5,5.5-16.5,17.1c0,10.4,6.6,17.1,16.7,17.1
				c3.4,0,7.6-1.6,8.9-2.8v-6.1h-12L478.7,33.6L478.7,33.6z"/>
			<path class="st0" d="M514.1,9.3h33.5v12.1H527v9.9h18.2v12.1H527v10.3h21.4v12.1h-34.3L514.1,9.3L514.1,9.3z"/>
			<path class="st0" d="M586.6,8.3c17.2,0,30,11.2,30,29.2c0,17.1-12.8,29.2-30,29.2s-30.1-11.2-30.1-29.2
				C556.5,21.1,568.6,8.3,586.6,8.3z M586.6,54.7c10.7,0,16.3-7.6,16.3-17.1c0-10.3-7.2-17.1-16.3-17.1c-9.4,0-16.3,6.8-16.3,17.1
				C570.3,47.2,577.5,54.7,586.6,54.7z"/>
			<path class="st0" d="M643.5,52c0,9.6-5.3,14.8-14.9,14.8c-4.8,0-9.2-2.1-10.7-4l4.2-9.9c1.3,1,3.1,1.7,4.7,1.7
				c2.3,0,3.8-1.7,3.8-5V9.3h12.9V52z"/>
			<path class="st0" d="M658.1,9.3h33.5v12.1H671v9.9h18.2v12.1H671v10.3h21.4v12.1h-34.3L658.1,9.3L658.1,9.3z"/>
			<path class="st0" d="M698,9.3h46.9v12.1h-17v44.4H715V21.4h-17V9.3z"/>
			<path class="st0" d="M455.4,85.5h33.5v12.1h-20.6v9.9h18.2v12.1h-18.2v10.3h21.4V142h-34.3V85.5z"/>
			<path class="st0" d="M530.2,113.2L549,142h-15.2l-12.1-19l-12,19h-15.2l18.8-28.8l-17.8-27.7h15.2l11.5,18.2l11-18.2h15.2
				L530.2,113.2z"/>
			<path class="st0" d="M556.3,142V85.5c3.2,0,12.9-0.2,17.3-0.2c17.2,0,22.9,9,22.9,18.7c0,10.1-7.8,19-20.9,19
				c-1.2,0-4.3,0-6.3-0.2V142H556.3z M569.2,97.6v12.9c1.9,0.2,4,0.4,5.9,0.4c3.4,0,7.6-1.5,7.6-6.9c0-5-3.2-6.5-7.8-6.5
				C573.2,97.4,571.9,97.5,569.2,97.6z"/>
			<path class="st0" d="M606.9,85.5h12.9v44.4h23V142h-35.9V85.5z"/>
			<path class="st0" d="M675,84.5c17.2,0,30,11.2,30,29.2c0,17.1-12.8,29.2-30,29.2s-30.1-11.2-30.1-29.2
				C645,97.3,657,84.5,675,84.5z M675,130.9c10.7,0,16.3-7.6,16.3-17.1c0-10.3-7.2-17.1-16.3-17.1c-9.4,0-16.3,6.8-16.3,17.1
				C658.7,123.4,666,130.9,675,130.9z"/>
			<path class="st0" d="M715.6,142V85.5c3.2,0,17.6-0.2,19.2-0.2c15.4,0,20.9,7.7,20.9,18.1c0,10.5-6.5,14.8-9.5,16.3l16.5,22.3H747
				l-13.7-19.8h-4.8V142L715.6,142L715.6,142z M728.5,97.6v12.5h4.7c4.9,0,8.8-1.8,8.8-6.5c0-3.2-1.6-6.1-7.8-6.1
				C732.2,97.4,731.2,97.5,728.5,97.6z"/>
			<path class="st0" d="M786.2,85.5h11.6l23.5,56.5h-13.8l-4.7-11.9h-22.4l-4.7,11.9h-13L786.2,85.5z M785.2,118h12.7l-6.3-16
				L785.2,118z"/>
			<path class="st0" d="M817.7,85.5h46.9v12.1h-17V142h-12.9V97.6h-17V85.5z"/>
			<path class="st0" d="M873.4,85.5h12.9V142h-12.9V85.5z"/>
			<path class="st0" d="M927.7,84.5c17.2,0,30,11.2,30,29.2c0,17.1-12.8,29.2-30,29.2s-30-11.2-30-29.2
				C897.6,97.3,909.7,84.5,927.7,84.5z M927.7,130.9c10.7,0,16.3-7.6,16.3-17.1c0-10.3-7.2-17.1-16.3-17.1
				c-9.4,0-16.3,6.8-16.3,17.1C911.4,123.4,918.6,130.9,927.7,130.9z"/>
			<path class="st0" d="M1007.2,142l-26.8-33.9V142h-12.1V85.5h10.3l26.8,34.1V85.5h12.1V142L1007.2,142L1007.2,142z"/>
		</g>
	</g>
	<g>
		<g>
			<path class="st1" d="M385.1,73.5C382.7,42,357.5,16.8,326,14.6c-1.5-0.1-3.1-0.2-4.6-0.2c-26.4,0-49.2,16.1-58.9,39.1
				c-0.1,0.2-0.1,0.3-0.2,0.5c-9.6-23.2-32.5-39.6-59.1-39.6c-0.1,0-0.1,0-0.2,0c-26.4,0.1-49,16.2-58.7,39.1
				c-0.1,0.2-0.1,0.3-0.2,0.5c-2.5,6.1-4.1,12.7-4.6,19.5h-0.4H85v9.7h54.1c-2.4,27.7-25.8,49.5-54.1,49.5c-0.1,0-0.1,0-0.2,0
				c-29.8-0.1-54.1-24.4-54.1-54.3s24.2-54.2,54.1-54.3v-9.7c-35.2,0.1-63.7,28.7-63.7,63.9s28.6,63.8,63.7,63.9c0.1,0,0.1,0,0.2,0
				c26.6,0,49.5-16.4,59.1-39.6c0.1,0.2,0.1,0.3,0.2,0.5c9.7,22.9,32.3,39,58.7,39.1v-9.7c-28.2-0.1-51.4-21.8-53.9-49.5
				c-0.1-1.6-0.2-3.2-0.2-4.8s0.1-3.2,0.2-4.8c2.4-27.6,25.6-49.4,53.9-49.5c0.1,0,0.1,0,0.2,0c28.3,0,51.6,21.8,54.1,49.5H203v9.7
				h54.3h0.4c0.5,6.9,2.1,13.4,4.6,19.5c0.1,0.2,0.1,0.3,0.2,0.5c9.1,21.6,29.8,37.1,54.3,38.9c1.5,0.1,3.1,0.2,4.7,0.2
				s3.1-0.1,4.6-0.2c0.1,0,0.2,0,0.4,0c31.3-2.4,56.4-27.6,58.8-58.9c0.1-1.6,0.2-3.2,0.2-4.8C385.3,76.7,385.3,75.1,385.1,73.5z
				 M326.4,132.4c-0.1,0-0.2,0-0.3,0c-1.5,0.1-3.1,0.2-4.6,0.2c-1.6,0-3.1-0.1-4.7-0.2c-26.2-2.2-47.1-23.1-49.4-49.3h49.3h9.4v-4.6
				v-5h-58.7c2.4-27.7,25.8-49.5,54.1-49.5c1.6,0,3.1,0.1,4.6,0.2c26.2,2.2,47.1,23.1,49.4,49.3c0.1,1.6,0.2,3.2,0.2,4.8
				s-0.1,3.2-0.2,4.8C373.1,109.2,352.4,130,326.4,132.4z"/>
			<path class="st1" d="M206.5,145.7H203c-24.7-0.1-47.2-13.6-58.9-35c-11.8,21.5-34.2,35-59.1,35h-0.2
				c-37.1-0.1-67.2-30.4-67.2-67.4c0-37.1,30.2-67.3,67.2-67.4h3.5v16.6h-3.5c-27.9,0.1-50.6,22.9-50.6,50.8s22.7,50.7,50.6,50.8
				h0.1c24.8,0,46.1-18.4,50.1-42.5H81.5V69.9h54.8c0.7-6,2.3-11.8,4.6-17.4l0.2-0.5C151.7,27,176,10.9,203,10.8h0.2
				c24.9,0,47.3,13.5,59.1,35c11.8-21.5,34.3-35,59.1-35c1.6,0,3.2,0.1,4.9,0.2c33.1,2.4,59.9,29.1,62.4,62.2l0,0
				c0.1,1.7,0.2,3.4,0.2,5.1c0,1.7-0.1,3.4-0.2,5.1c-2.5,32.9-29.1,59.6-62,62.1h-0.4c-3.3,0.2-6.5,0.2-9.8,0
				c-25.4-1.8-47.3-17.6-57.2-41l-0.2-0.5c-2.3-5.6-3.8-11.4-4.6-17.4h-55V69.9h53.8c-4-24.1-25.3-42.5-50.1-42.5H203
				c-26,0.1-48.1,20.4-50.4,46.3c-0.1,1.5-0.2,3-0.2,4.5s0.1,3,0.2,4.5c2.3,25.8,24.4,46.2,50.4,46.3h3.5L206.5,145.7L206.5,145.7z
				 M206.5,79.6h54.4l0.2,3.2c0.5,6.4,2,12.6,4.4,18.5l0.2,0.5c8.9,21.1,28.6,35.2,51.3,36.8c3,0.2,5.8,0.2,8.8,0h0.4
				c29.5-2.3,53.3-26.2,55.5-55.7c0.1-1.5,0.2-3.1,0.2-4.6s-0.1-3-0.2-4.6c-2.2-29.6-26.2-53.6-55.9-55.7c-1.5-0.1-2.9-0.2-4.4-0.2
				c-24.3,0-46.2,14.5-55.7,36.9l-3.4,8.3l-3.2-7.8c-9.4-22.7-31.3-37.4-55.9-37.4H203c-24.2,0.1-46,14.6-55.5,36.9l-0.2,0.5
				c-2.4,5.9-3.9,12.1-4.4,18.5l-0.2,3.2H88.5v2.7h54.4l-0.3,3.8c-1.3,14.3-7.8,27.6-18.5,37.4S99.5,136.1,85,136.1h-0.2
				c-31.8-0.1-57.6-26-57.6-57.8c0-30.6,24-55.7,54.1-57.7v-2.7c-31.6,2-56.8,28.4-56.8,60.4c0,33.2,27,60.3,60.2,60.4h0.1
				c24.6,0,46.5-14.7,55.9-37.4l3.2-7.8l3.4,8.3c9,21.3,29.2,35.4,52,36.8v-2.7c-13.2-0.8-25.7-6.2-35.5-15.2
				c-10.6-9.8-17.1-23-18.4-37.3c-0.2-1.7-0.2-3.5-0.2-5.1c0-1.7,0.1-3.4,0.2-5.1c1.3-14.3,7.8-27.5,18.4-37.3
				c10.7-9.8,24.5-15.3,39-15.3h0.2c14.5,0,28.4,5.4,39.1,15.3c10.6,9.8,17.2,23.1,18.5,37.4l0.3,3.8h-54.4V79.6z M321.4,136.1
				c-1.6,0-3.3-0.1-5-0.2c-28-2.4-50.1-24.5-52.6-52.4l-0.3-3.8h59V77h-59l0.3-3.8c1.3-14.3,7.8-27.6,18.5-37.4s24.6-15.3,39.1-15.3
				c1.6,0,3.3,0.1,4.9,0.2c28,2.4,50.2,24.4,52.6,52.4c0.2,1.7,0.2,3.5,0.2,5.1c0,1.7-0.1,3.4-0.2,5.1c-2.4,28-24.4,50-52.2,52.5
				l-0.3-3.5l0.3,3.5h-0.4C324.7,136,323,136.1,321.4,136.1z M271.3,86.6c3.7,22.8,22.4,40.3,45.7,42.3c2.9,0.3,5.8,0.3,8.7,0h0.3
				c24.4-2.2,43.8-21.6,45.9-46c0.1-1.5,0.2-3,0.2-4.5s-0.1-3-0.2-4.5c-2.2-24.6-21.6-44-46.2-46.1c-1.5-0.1-2.9-0.2-4.3-0.2
				c-24.8,0-46.1,18.4-50.1,42.5h58.2v16.7h-58.2V86.6z M326.7,135.8l-0.3-3.5L326.7,135.8L326.7,135.8z"/>
		</g>
		<g>
			<path class="st0" d="M280.2,73.5h-0.4c-0.5-6.7-2-13.1-4.4-19c-0.1-0.2-0.1-0.3-0.2-0.5c-9.6-23.2-32.5-39.6-59.1-39.6
				c-0.1,0-0.1,0-0.2,0c-26.4,0.1-49,16.2-58.7,39.1v1c-0.1-0.2-0.1-0.3-0.2-0.5c-2.5,6.1-4.1,12.7-4.6,19.5H152H97.9v9.7H152
				c-2.4,27.7-25.8,49.5-54.1,49.5c-0.1,0-0.1,0-0.2,0v9.7c0.1,0,0.1,0,0.2,0c26.6,0,49.5-16.4,59.1-39.6c0.1-0.2,0.1-0.3,0.2-0.5v1
				c9.7,22.9,32.3,39,58.7,39.1v-9.7c-28.2-0.1-51.4-21.8-53.9-49.5c-0.1-1.6-0.2-3.2-0.2-4.8s0.1-3.2,0.2-4.8
				c2.4-27.6,25.6-49.4,53.9-49.5c0.1,0,0.1,0,0.2,0c28.3,0,51.6,21.8,54.1,49.5h-54.3v9.7h54.3h0.4c0.5,6.9,2.1,13.4,4.6,19.5
				c0.1-0.2,0.1-0.3,0.2-0.5v1c9.1,21.6,29.8,37.1,54.3,38.9c1.5,0.1,3.1,0.2,4.7,0.2s3.1-0.1,4.6-0.2v-9.7
				c-1.5,0.1-3.1,0.2-4.6,0.2c-1.6,0-3.1-0.1-4.7-0.2c-26.2-2.2-47.1-23.1-49.4-49.3h49.2h9.4v-4.6v-5L280.2,73.5L280.2,73.5
				L280.2,73.5z"/>
			<path class="st0" d="M219.4,145.7h-3.5c-24.7-0.1-47.2-13.6-58.9-35c-11.8,21.5-34.2,35-59.1,35l-3.6-0.1l-0.1-3.4v-13.1h3.7
				c24.8,0,46.1-18.4,50.1-42.5H94.4V69.9h54.8c0.7-5.9,2.2-11.7,4.5-17.2l0,0L154,52c0-0.1,0-0.1,0.1-0.2l3-7.2l0.3,0.6
				c11.8-21.1,34.1-34.4,58.6-34.5h0.2c27.4,0,51.9,16.4,62.3,41.7l0.2,0.5c2.2,5.4,3.7,11.1,4.4,16.9h59.4v16.7h-58.2
				c3.7,22.8,22.4,40.3,45.7,42.3c2.9,0.3,5.8,0.3,8.7,0l3.8-0.3v16.8l-3.2,0.2c-3.3,0.2-6.5,0.2-9.8,0c-22.9-1.7-42.9-14.6-54-34.3
				l-0.3,0.6l-3-7.1c0-0.1,0-0.1-0.1-0.2l-0.3-0.7c-2.3-5.5-3.8-11.3-4.5-17.2h-55V69.9h53.8c-4-24.1-25.3-42.5-50.1-42.5h-0.2
				c-26,0.1-48.1,20.4-50.4,46.3c-0.1,1.5-0.2,3-0.2,4.5c0,0.9,0.1,1.8,0.1,2.7c0,0.6,0.1,1.2,0.1,1.9c2.3,25.8,24.4,46.1,50.4,46.2
				h3.5L219.4,145.7L219.4,145.7z M278.9,102.4c9,20.7,28.5,34.5,51,36.1c1.9,0.1,3.7,0.2,5.5,0.2V136c-2,0-4,0-6.1-0.2
				c-24.1-2.1-43.8-18.7-50.4-41.1V102.4z M101.2,136v2.7c23.2-1.2,43.6-15.6,52.6-37.3l0.2-0.5l5.2-12.8c-0.3-1.5-0.5-3-0.6-4.6
				v-0.2c0-0.6-0.1-1.2-0.1-1.8c-0.1-1-0.1-2.1-0.1-3.2c0-1.7,0.1-3.4,0.2-5.1c0.1-1.5,0.3-3.1,0.6-4.6l-1.8-4.4
				c-0.8,3.1-1.3,6.4-1.5,9.6l-0.2,3.2h-54.2v2.7h54.4l-0.3,3.8c-1.3,14.3-7.8,27.6-18.5,37.4C127.1,129.9,114.5,135.2,101.2,136z
				 M160.7,102.4c9.1,20.9,29.1,34.8,51.7,36.2v-2.7c-13.2-0.8-25.7-6.2-35.5-15.2c-7.7-7.1-13.3-16.1-16.2-26V102.4z M219.4,79.6
				h54.4l0.2,3.2c0.2,3.2,0.7,6.5,1.5,9.6l1.8-4.4c-0.3-1.5-0.5-3-0.6-4.6l-0.3-3.8h59v-2.7h-58.8l-0.2-3.2
				c-0.5-6.2-1.9-12.2-4.2-18l-0.2-0.5c-9.4-22.7-31.3-37.4-55.9-37.4h-0.2c-24,0.1-45.6,14.3-55.2,36.3v7.7
				c2.9-9.9,8.5-18.9,16.2-26c10.7-9.8,24.5-15.3,39-15.3h0.2c14.5,0,28.4,5.4,39.1,15.3c10.6,9.8,17.2,23.1,18.5,37.4L274,77h-54.6
				L219.4,79.6L219.4,79.6z"/>
		</g>
	</g>
</g>
</svg>
